<svg version="1.1" id="Layer_1" xmlns="http://www.w3.org/2000/svg" xmlns:xlink="http://www.w3.org/1999/xlink" x="0px" y="0px"
	 width="100%" viewBox="0 0 1080 1080" enable-background="new 0 0 1080 1080" xml:space="preserve">
<path fill="#000000" opacity="1.000000" stroke="none" 
	d="
M1081.000000,379.000000 
	C1081.000000,613.306274 1081.000000,847.112549 1081.000000,1080.959473 
	C721.068665,1080.959473 361.137329,1080.959473 1.103000,1080.959473 
	C1.103000,721.110291 1.103000,361.220612 1.103000,1.165442 
	C360.999939,1.165442 720.999939,1.165442 1081.000000,1.165442 
	C1081.000000,126.862785 1081.000000,252.681396 1081.000000,379.000000 
M60.478973,765.984802 
	C69.988838,783.684082 79.320679,801.482239 89.081116,819.042236 
	C94.225639,828.297729 99.890511,837.289307 105.766029,846.102966 
	C108.846939,850.724426 112.904755,854.692200 116.482353,858.987671 
	C117.087166,859.713867 117.468124,860.622131 117.996384,861.417114 
	C121.360413,866.479736 124.712326,871.551025 128.156555,876.558716 
	C128.425156,876.949219 129.520401,876.688538 129.968948,877.053284 
	C131.354401,878.179932 132.865067,879.286316 133.869293,880.721008 
	C136.145294,883.972595 137.840195,887.665527 140.327408,890.727295 
	C144.977692,896.451965 149.760376,902.117249 154.959167,907.338074 
	C165.495041,917.918274 176.231552,928.306580 187.116089,938.528259 
	C192.219162,943.320618 198.049149,947.334595 203.204636,952.076538 
	C209.410507,957.784546 216.487808,962.031311 223.781067,966.109741 
	C225.775757,967.225159 226.872177,971.459778 228.465012,971.508423 
	C234.132584,971.681641 237.009567,976.068237 240.984711,978.598206 
	C265.407867,994.141907 290.052277,1009.183105 316.461548,1021.292664 
	C337.923279,1031.133545 359.655609,1040.146606 382.256866,1046.910400 
	C397.018494,1051.328003 411.865723,1055.656982 426.927826,1058.819946 
	C443.395264,1062.278198 460.103729,1064.738647 476.801849,1066.903442 
	C491.397034,1068.795654 506.104645,1070.443359 520.796997,1070.806885 
	C539.527466,1071.270264 558.293762,1070.386719 577.041992,1069.967896 
	C582.797668,1069.839233 588.592834,1069.688354 594.286072,1068.923462 
	C607.471313,1067.152466 620.688416,1065.427856 633.739380,1062.894897 
	C650.329773,1059.675171 666.887573,1056.134766 683.246826,1051.909302 
	C712.187317,1044.434448 740.005493,1033.680298 766.990601,1020.901733 
	C779.626465,1014.918091 792.005188,1008.304260 804.096741,1001.281006 
	C818.940918,992.659180 833.550598,983.595581 847.890137,974.158386 
	C855.287537,969.290100 861.833374,963.138855 868.849731,957.677490 
	C875.759155,952.299316 883.030090,947.357422 889.683350,941.685547 
	C898.087830,934.520813 906.212708,926.999817 914.099121,919.266235 
	C918.859680,914.597900 922.804688,909.110046 927.354248,904.211487 
	C934.600769,896.409180 942.150085,888.886719 949.342468,881.036194 
	C951.464722,878.719849 952.605652,875.531860 954.566833,873.034302 
	C957.934998,868.744751 961.910950,864.909424 965.066101,860.480469 
	C971.722412,851.136780 978.281921,841.701782 984.388794,831.994507 
	C992.780029,818.655945 1001.349609,805.366516 1008.715698,791.459106 
	C1025.114990,760.496521 1038.967896,728.378357 1048.644287,694.634460 
	C1052.938599,679.659790 1056.701538,664.498047 1059.885498,649.250000 
	C1062.828735,635.154968 1065.054565,620.879883 1066.899170,606.594116 
	C1068.720581,592.488098 1070.515747,578.287781 1070.823853,564.096252 
	C1071.465454,534.546082 1071.644043,504.957611 1067.031616,475.595276 
	C1065.166870,463.724091 1064.522217,451.592773 1061.781006,439.942505 
	C1056.560547,417.756256 1051.307861,395.469452 1044.062744,373.898132 
	C1036.735596,352.082520 1027.706421,330.747375 1018.056946,309.831879 
	C1010.402466,293.240387 1001.219055,277.276947 991.733276,261.629486 
	C982.308716,246.083038 971.902710,231.107712 961.431580,216.230789 
	C956.968445,209.889816 951.248169,204.433411 946.095581,198.578156 
	C941.204102,193.019653 936.404419,187.376526 931.391907,181.929276 
	C923.331360,173.169586 915.207825,164.464203 906.937195,155.903641 
	C904.520142,153.401825 901.413452,151.580276 898.816711,149.232513 
	C897.393188,147.945496 896.613770,145.908752 895.129700,144.732880 
	C889.938477,140.619720 884.557861,136.746216 879.265869,132.759567 
	C864.770447,121.839630 850.612427,110.435295 835.721436,100.085022 
	C808.834229,81.396530 779.866516,66.388123 749.845825,53.351151 
	C720.915833,40.787834 691.070923,30.947557 660.319946,24.164742 
	C642.643555,20.265821 624.663696,17.587166 606.715088,15.127419 
	C592.301697,13.152155 577.737854,11.343320 563.226624,11.226880 
	C540.232422,11.042373 517.210999,12.017785 494.231873,13.135190 
	C483.032288,13.679792 471.886627,15.535761 460.744110,17.007032 
	C440.241241,19.714262 420.221832,24.563858 400.204285,29.777056 
	C369.166443,37.860291 339.510284,49.477100 310.699921,63.197433 
	C284.668762,75.594246 259.881409,90.320778 236.316864,107.047569 
	C231.683853,110.336205 226.021393,112.173988 221.385971,115.459953 
	C216.691101,118.788033 212.880692,123.337013 208.330490,126.901344 
	C197.831955,135.125198 186.331360,142.155136 178.724762,153.640289 
	C176.921265,156.363358 174.162888,158.482986 171.722977,160.750259 
	C163.878952,168.039200 155.869843,175.154053 148.141663,182.562683 
	C143.705185,186.815735 139.465256,191.321976 135.547607,196.054291 
	C131.738663,200.655289 128.629715,205.830917 124.894470,210.499054 
	C120.282593,216.262756 114.771469,220.973999 112.262283,228.670425 
	C110.470299,234.167023 105.002831,238.465332 101.175430,243.298340 
	C100.278297,244.232697 100.135834,245.803665 99.414803,247.036133 
	C89.919510,263.266235 79.854149,279.185303 70.938904,295.725250 
	C63.637035,309.272003 57.253922,323.362396 51.220699,337.534088 
	C40.146793,363.546112 31.119061,390.324921 25.146257,417.964905 
	C21.050411,436.918976 18.034666,456.125244 15.103567,475.305481 
	C13.206148,487.721619 11.447576,500.276764 11.200378,512.800659 
	C10.794396,533.369263 11.396419,553.972473 12.109807,574.542480 
	C12.483371,585.313843 13.604918,596.100098 15.087938,606.782593 
	C17.426548,623.628052 19.466484,640.592651 23.212917,657.149292 
	C31.656786,694.465210 43.980026,730.566162 60.478973,765.984802 
z"/>
<path fill="#FFFFFF" opacity="1.000000" stroke="none" 
	d="
M60.255611,765.665283 
	C43.980026,730.566162 31.656786,694.465210 23.212917,657.149292 
	C19.466484,640.592651 17.426548,623.628052 15.087938,606.782593 
	C13.604918,596.100098 12.483371,585.313843 12.109807,574.542480 
	C11.396419,553.972473 10.794396,533.369263 11.200378,512.800659 
	C11.447576,500.276764 13.206148,487.721619 15.103567,475.305481 
	C18.034666,456.125244 21.050411,436.918976 25.146257,417.964905 
	C31.119061,390.324921 40.146793,363.546112 51.220699,337.534088 
	C57.253922,323.362396 63.637035,309.272003 70.938904,295.725250 
	C79.854149,279.185303 89.919510,263.266235 99.414803,247.036133 
	C100.135834,245.803665 100.278297,244.232697 101.175430,243.298340 
	C105.002831,238.465332 110.470299,234.167023 112.262283,228.670425 
	C114.771469,220.973999 120.282593,216.262756 124.894470,210.499054 
	C128.629715,205.830917 131.738663,200.655289 135.547607,196.054291 
	C139.465256,191.321976 143.705185,186.815735 148.141663,182.562683 
	C155.869843,175.154053 163.878952,168.039200 171.722977,160.750259 
	C174.162888,158.482986 176.921265,156.363358 178.724762,153.640289 
	C186.331360,142.155136 197.831955,135.125198 208.330490,126.901344 
	C212.880692,123.337013 216.691101,118.788033 221.385971,115.459953 
	C226.021393,112.173988 231.683853,110.336205 236.316864,107.047569 
	C259.881409,90.320778 284.668762,75.594246 310.699921,63.197433 
	C339.510284,49.477100 369.166443,37.860291 400.204285,29.777056 
	C420.221832,24.563858 440.241241,19.714262 460.744110,17.007032 
	C471.886627,15.535761 483.032288,13.679792 494.231873,13.135190 
	C517.210999,12.017785 540.232422,11.042373 563.226624,11.226880 
	C577.737854,11.343320 592.301697,13.152155 606.715088,15.127419 
	C624.663696,17.587166 642.643555,20.265821 660.319946,24.164742 
	C691.070923,30.947557 720.915833,40.787834 749.845825,53.351151 
	C779.866516,66.388123 808.834229,81.396530 835.721436,100.085022 
	C850.612427,110.435295 864.770447,121.839630 879.265869,132.759567 
	C884.557861,136.746216 889.938477,140.619720 895.129700,144.732880 
	C896.613770,145.908752 897.393188,147.945496 898.816711,149.232513 
	C901.413452,151.580276 904.520142,153.401825 906.937195,155.903641 
	C915.207825,164.464203 923.331360,173.169586 931.391907,181.929276 
	C936.404419,187.376526 941.204102,193.019653 946.095581,198.578156 
	C951.248169,204.433411 956.968445,209.889816 961.431580,216.230789 
	C971.902710,231.107712 982.308716,246.083038 991.733276,261.629486 
	C1001.219055,277.276947 1010.402466,293.240387 1018.056946,309.831879 
	C1027.706421,330.747375 1036.735596,352.082520 1044.062744,373.898132 
	C1051.307861,395.469452 1056.560547,417.756256 1061.781006,439.942505 
	C1064.522217,451.592773 1065.166870,463.724091 1067.031616,475.595276 
	C1071.644043,504.957611 1071.465454,534.546082 1070.823853,564.096252 
	C1070.515747,578.287781 1068.720581,592.488098 1066.899170,606.594116 
	C1065.054565,620.879883 1062.828735,635.154968 1059.885498,649.250000 
	C1056.701538,664.498047 1052.938599,679.659790 1048.644287,694.634460 
	C1038.967896,728.378357 1025.114990,760.496521 1008.715698,791.459106 
	C1001.349609,805.366516 992.780029,818.655945 984.388794,831.994507 
	C978.281921,841.701782 971.722412,851.136780 965.066101,860.480469 
	C961.910950,864.909424 957.934998,868.744751 954.566833,873.034302 
	C952.605652,875.531860 951.464722,878.719849 949.342468,881.036194 
	C942.150085,888.886719 934.600769,896.409180 927.354248,904.211487 
	C922.804688,909.110046 918.859680,914.597900 914.099121,919.266235 
	C906.212708,926.999817 898.087830,934.520813 889.683350,941.685547 
	C883.030090,947.357422 875.759155,952.299316 868.849731,957.677490 
	C861.833374,963.138855 855.287537,969.290100 847.890137,974.158386 
	C833.550598,983.595581 818.940918,992.659180 804.096741,1001.281006 
	C792.005188,1008.304260 779.626465,1014.918091 766.990601,1020.901733 
	C740.005493,1033.680298 712.187317,1044.434448 683.246826,1051.909302 
	C666.887573,1056.134766 650.329773,1059.675171 633.739380,1062.894897 
	C620.688416,1065.427856 607.471313,1067.152466 594.286072,1068.923462 
	C588.592834,1069.688354 582.797668,1069.839233 577.041992,1069.967896 
	C558.293762,1070.386719 539.527466,1071.270264 520.796997,1070.806885 
	C506.104645,1070.443359 491.397034,1068.795654 476.801849,1066.903442 
	C460.103729,1064.738647 443.395264,1062.278198 426.927826,1058.819946 
	C411.865723,1055.656982 397.018494,1051.328003 382.256866,1046.910400 
	C359.655609,1040.146606 337.923279,1031.133545 316.461548,1021.292664 
	C290.052277,1009.183105 265.407867,994.141907 240.984711,978.598206 
	C237.009567,976.068237 234.132584,971.681641 228.465012,971.508423 
	C226.872177,971.459778 225.775757,967.225159 223.781067,966.109741 
	C216.487808,962.031311 209.410507,957.784546 203.204636,952.076538 
	C198.049149,947.334595 192.219162,943.320618 187.116089,938.528259 
	C176.231552,928.306580 165.495041,917.918274 154.959167,907.338074 
	C149.760376,902.117249 144.977692,896.451965 140.327408,890.727295 
	C137.840195,887.665527 136.145294,883.972595 133.869293,880.721008 
	C132.865067,879.286316 131.354401,878.179932 129.968948,877.053284 
	C129.520401,876.688538 128.425156,876.949219 128.156555,876.558716 
	C124.712326,871.551025 121.360413,866.479736 117.996384,861.417114 
	C117.468124,860.622131 117.087166,859.713867 116.482353,858.987671 
	C112.904755,854.692200 108.846939,850.724426 105.766029,846.102966 
	C99.890511,837.289307 94.225639,828.297729 89.081116,819.042236 
	C79.320679,801.482239 69.988838,783.684082 60.255611,765.665283 
M383.016541,983.522156 
	C396.670288,987.681396 410.133209,992.695496 424.023254,995.796265 
	C444.037476,1000.264099 464.282593,1003.889160 484.580078,1006.833984 
	C499.954010,1009.064514 515.546753,1010.442444 531.073059,1010.781555 
	C546.388306,1011.116150 561.774170,1010.074524 577.070374,1008.883362 
	C591.356995,1007.770752 605.709534,1006.435974 619.774597,1003.812927 
	C638.426758,1000.334412 657.050110,996.290283 675.289124,991.096191 
	C710.294800,981.127258 743.715271,967.053406 775.008728,948.361450 
	C790.281677,939.238770 806.192505,931.035522 819.180481,918.301514 
	C821.721985,915.809753 825.365295,914.080566 828.270630,911.173096 
	C836.005859,903.432312 844.590576,896.516663 853.069336,889.555359 
	C856.012573,887.138916 860.348877,886.195984 862.817566,883.466431 
	C870.470886,875.004517 880.344482,868.645325 885.901550,858.120239 
	C888.385010,853.416565 892.178101,849.139343 896.174500,845.558960 
	C902.973816,839.467590 906.449036,830.381470 914.691223,825.615540 
	C915.937134,824.895081 916.264221,822.585571 917.016296,821.011047 
	C918.143494,819.376160 920.535583,818.409180 921.644897,816.638550 
	C934.112732,796.738831 946.989258,777.056091 958.487122,756.601807 
	C965.765503,743.653625 971.507141,729.735657 976.855835,715.836182 
	C983.179626,699.402893 988.947327,682.697815 993.850464,665.789917 
	C1000.338501,643.416565 1005.118408,620.613403 1007.024292,597.305969 
	C1008.319580,581.465881 1010.012390,565.648743 1010.861694,549.785706 
	C1011.310242,541.408752 1010.555908,532.939697 1009.953552,524.540222 
	C1008.781433,508.194733 1007.855164,491.804352 1005.841736,475.554626 
	C1004.114685,461.615692 1001.608765,447.706970 998.392883,434.032867 
	C992.218262,407.778046 983.952087,382.189819 973.229553,357.344177 
	C962.942444,333.507507 951.030334,310.602753 937.135559,288.726532 
	C930.946594,278.982452 924.139343,269.630646 917.574646,260.127045 
	C917.232910,259.632416 916.482178,259.441284 916.010071,259.011841 
	C914.673279,257.795868 913.166321,256.687286 912.116943,255.251007 
	C909.690979,251.930725 907.720215,248.260086 905.141418,245.074234 
	C902.688965,242.044449 899.500122,239.617355 896.984009,236.631226 
	C890.617249,229.075089 884.888428,220.928497 878.058960,213.831680 
	C872.476807,208.030960 866.445862,202.643677 859.931763,197.605255 
	C849.421814,189.476273 837.954285,181.901321 830.069763,170.644928 
	C829.499939,169.831390 828.215210,169.480255 827.216064,169.014603 
	C825.668884,168.293472 823.828491,167.969330 822.555481,166.932770 
	C817.683655,162.965836 813.349243,158.236588 808.149475,154.796860 
	C798.549927,148.446548 788.453003,142.851761 778.618652,136.851456 
	C772.266724,132.975922 766.331909,128.266083 759.654297,125.104004 
	C741.539551,116.525932 723.411926,107.843803 704.748474,100.595718 
	C688.795227,94.400154 672.315979,89.183876 655.661926,85.267204 
	C636.803650,80.832153 617.562927,77.812241 598.353760,75.147629 
	C582.961609,73.012497 567.388489,71.915260 551.856628,71.150932 
	C542.144531,70.672989 532.347046,71.454514 522.611267,72.052528 
	C509.846771,72.836586 497.036194,73.468346 484.371460,75.127586 
	C468.167480,77.250504 451.936890,79.638931 435.987396,83.140923 
	C400.118744,91.016510 365.690582,103.359879 332.854279,119.769852 
	C313.082794,129.650665 293.593536,140.176956 276.091309,153.941895 
	C268.766296,159.702789 261.103729,165.033325 253.747818,170.756393 
	C245.494598,177.177567 236.491455,182.715729 229.646393,190.834015 
	C229.328217,191.211380 228.928726,191.525009 228.545105,191.841644 
	C223.036346,196.388199 217.247711,200.641296 212.098511,205.563507 
	C207.885910,209.590408 204.523193,214.492676 200.625748,218.866089 
	C194.158356,226.123276 187.524612,233.232010 181.036774,240.471222 
	C176.419266,245.623459 171.494522,250.576935 167.473846,256.170410 
	C160.573257,265.770416 154.020828,275.645081 147.777832,285.687653 
	C138.416428,300.746613 128.909180,315.759033 120.494659,331.347626 
	C114.424484,342.593109 109.437447,354.526001 105.030098,366.542114 
	C98.523865,384.280640 92.445824,402.214294 87.133598,420.342682 
	C80.988045,441.314819 76.793633,462.759033 74.979958,484.604431 
	C73.678764,500.277100 71.551292,515.929199 71.218857,531.620728 
	C70.887306,547.270020 71.914749,562.989258 73.125931,578.617493 
	C74.181679,592.240112 76.188515,605.796753 78.015915,619.350159 
	C81.058678,641.917480 86.950989,663.829224 93.867317,685.469849 
	C103.965988,717.067505 117.039665,747.389832 134.073792,775.881470 
	C141.422989,788.174011 149.532791,800.019653 157.515823,811.921570 
	C160.708191,816.681152 164.503662,821.034851 167.999680,825.592468 
	C171.058151,829.579590 174.049652,833.618347 177.133881,837.585205 
	C178.744217,839.656372 180.388611,841.719177 182.197678,843.613770 
	C185.568207,847.143799 189.275055,850.370728 192.464767,854.050659 
	C196.272278,858.443481 199.168716,863.729553 203.366562,867.660339 
	C214.617081,878.195129 226.914520,887.656250 237.732956,898.595337 
	C248.209869,909.188965 260.326385,917.413635 272.253113,925.998779 
	C297.699524,944.315735 325.175842,959.096130 353.723328,971.891968 
	C363.059296,976.076660 372.803772,979.349976 383.016541,983.522156 
z"/>
<path fill="#000000" opacity="1.000000" stroke="none" 
	d="
M382.688965,983.281128 
	C372.803772,979.349976 363.059296,976.076660 353.723328,971.891968 
	C325.175842,959.096130 297.699524,944.315735 272.253113,925.998779 
	C260.326385,917.413635 248.209869,909.188965 237.732956,898.595337 
	C226.914520,887.656250 214.617081,878.195129 203.366562,867.660339 
	C199.168716,863.729553 196.272278,858.443481 192.464767,854.050659 
	C189.275055,850.370728 185.568207,847.143799 182.197678,843.613770 
	C180.388611,841.719177 178.744217,839.656372 177.133881,837.585205 
	C174.049652,833.618347 171.058151,829.579590 167.999680,825.592468 
	C164.503662,821.034851 160.708191,816.681152 157.515823,811.921570 
	C149.532791,800.019653 141.422989,788.174011 134.073792,775.881470 
	C117.039665,747.389832 103.965988,717.067505 93.867317,685.469849 
	C86.950989,663.829224 81.058678,641.917480 78.015915,619.350159 
	C76.188515,605.796753 74.181679,592.240112 73.125931,578.617493 
	C71.914749,562.989258 70.887306,547.270020 71.218857,531.620728 
	C71.551292,515.929199 73.678764,500.277100 74.979958,484.604431 
	C76.793633,462.759033 80.988045,441.314819 87.133598,420.342682 
	C92.445824,402.214294 98.523865,384.280640 105.030098,366.542114 
	C109.437447,354.526001 114.424484,342.593109 120.494659,331.347626 
	C128.909180,315.759033 138.416428,300.746613 147.777832,285.687653 
	C154.020828,275.645081 160.573257,265.770416 167.473846,256.170410 
	C171.494522,250.576935 176.419266,245.623459 181.036774,240.471222 
	C187.524612,233.232010 194.158356,226.123276 200.625748,218.866089 
	C204.523193,214.492676 207.885910,209.590408 212.098511,205.563507 
	C217.247711,200.641296 223.036346,196.388199 228.545105,191.841644 
	C228.928726,191.525009 229.328217,191.211380 229.646393,190.834015 
	C236.491455,182.715729 245.494598,177.177567 253.747818,170.756393 
	C261.103729,165.033325 268.766296,159.702789 276.091309,153.941895 
	C293.593536,140.176956 313.082794,129.650665 332.854279,119.769852 
	C365.690582,103.359879 400.118744,91.016510 435.987396,83.140923 
	C451.936890,79.638931 468.167480,77.250504 484.371460,75.127586 
	C497.036194,73.468346 509.846771,72.836586 522.611267,72.052528 
	C532.347046,71.454514 542.144531,70.672989 551.856628,71.150932 
	C567.388489,71.915260 582.961609,73.012497 598.353760,75.147629 
	C617.562927,77.812241 636.803650,80.832153 655.661926,85.267204 
	C672.315979,89.183876 688.795227,94.400154 704.748474,100.595718 
	C723.411926,107.843803 741.539551,116.525932 759.654297,125.104004 
	C766.331909,128.266083 772.266724,132.975922 778.618652,136.851456 
	C788.453003,142.851761 798.549927,148.446548 808.149475,154.796860 
	C813.349243,158.236588 817.683655,162.965836 822.555481,166.932770 
	C823.828491,167.969330 825.668884,168.293472 827.216064,169.014603 
	C828.215210,169.480255 829.499939,169.831390 830.069763,170.644928 
	C837.954285,181.901321 849.421814,189.476273 859.931763,197.605255 
	C866.445862,202.643677 872.476807,208.030960 878.058960,213.831680 
	C884.888428,220.928497 890.617249,229.075089 896.984009,236.631226 
	C899.500122,239.617355 902.688965,242.044449 905.141418,245.074234 
	C907.720215,248.260086 909.690979,251.930725 912.116943,255.251007 
	C913.166321,256.687286 914.673279,257.795868 916.010071,259.011841 
	C916.482178,259.441284 917.232910,259.632416 917.574646,260.127045 
	C924.139343,269.630646 930.946594,278.982452 937.135559,288.726532 
	C951.030334,310.602753 962.942444,333.507507 973.229553,357.344177 
	C983.952087,382.189819 992.218262,407.778046 998.392883,434.032867 
	C1001.608765,447.706970 1004.114685,461.615692 1005.841736,475.554626 
	C1007.855164,491.804352 1008.781433,508.194733 1009.953552,524.540222 
	C1010.555908,532.939697 1011.310242,541.408752 1010.861694,549.785706 
	C1010.012390,565.648743 1008.319580,581.465881 1007.024292,597.305969 
	C1005.118408,620.613403 1000.338501,643.416565 993.850464,665.789917 
	C988.947327,682.697815 983.179626,699.402893 976.855835,715.836182 
	C971.507141,729.735657 965.765503,743.653625 958.487122,756.601807 
	C946.989258,777.056091 934.112732,796.738831 921.644897,816.638550 
	C920.535583,818.409180 918.143494,819.376160 917.016296,821.011047 
	C916.264221,822.585571 915.937134,824.895081 914.691223,825.615540 
	C906.449036,830.381470 902.973816,839.467590 896.174500,845.558960 
	C892.178101,849.139343 888.385010,853.416565 885.901550,858.120239 
	C880.344482,868.645325 870.470886,875.004517 862.817566,883.466431 
	C860.348877,886.195984 856.012573,887.138916 853.069336,889.555359 
	C844.590576,896.516663 836.005859,903.432312 828.270630,911.173096 
	C825.365295,914.080566 821.721985,915.809753 819.180481,918.301514 
	C806.192505,931.035522 790.281677,939.238770 775.008728,948.361450 
	C743.715271,967.053406 710.294800,981.127258 675.289124,991.096191 
	C657.050110,996.290283 638.426758,1000.334412 619.774597,1003.812927 
	C605.709534,1006.435974 591.356995,1007.770752 577.070374,1008.883362 
	C561.774170,1010.074524 546.388306,1011.116150 531.073059,1010.781555 
	C515.546753,1010.442444 499.954010,1009.064514 484.580078,1006.833984 
	C464.282593,1003.889160 444.037476,1000.264099 424.023254,995.796265 
	C410.133209,992.695496 396.670288,987.681396 382.688965,983.281128 
M445.061584,347.418915 
	C443.497314,348.254333 441.933136,349.090027 440.368744,349.925201 
	C426.211304,357.483032 411.498535,364.176178 398.038513,372.820007 
	C381.651184,383.343567 367.269928,396.589813 354.303589,411.223358 
	C350.179688,415.877533 345.832733,420.405426 342.265503,425.468567 
	C330.118164,442.709625 319.223602,460.676178 311.226349,480.310272 
	C301.093842,505.186615 295.319275,531.091858 293.147491,557.750244 
	C292.256897,568.682129 292.610748,579.764709 293.105682,590.746887 
	C293.636139,602.516357 294.398926,614.339233 296.162689,625.971680 
	C298.018127,638.208618 300.708740,650.371887 303.874146,662.345337 
	C309.151917,682.309265 318.010864,700.839905 328.279877,718.686707 
	C341.602966,741.841309 358.384644,762.230225 378.931519,779.264160 
	C394.472778,792.148438 411.489746,802.883118 430.073975,811.057678 
	C445.275116,817.744202 460.843445,823.184387 477.234497,825.938721 
	C485.413483,827.313049 493.691162,828.152405 501.948853,828.991394 
	C510.101257,829.819824 518.282532,830.817078 526.455200,830.854858 
	C533.454163,830.887268 540.480164,829.836365 547.455872,828.959595 
	C557.118530,827.745178 566.930237,827.006958 576.351440,824.719482 
	C601.156433,818.696899 624.875061,809.564758 645.877319,794.849365 
	C658.911011,785.717224 671.109802,775.341492 683.259705,765.025024 
	C688.244263,760.792725 692.113098,755.246521 697.000000,749.720642 
	C697.000000,761.798584 696.908142,773.080261 697.055786,784.358826 
	C697.100281,787.757385 697.340515,791.285095 698.289551,794.519348 
	C706.121582,821.209717 730.712402,832.767029 755.639526,826.511475 
	C778.759583,820.709534 789.755310,803.441467 789.884399,781.126160 
	C790.225647,722.129211 789.965149,663.129028 790.019104,604.130188 
	C790.037842,583.655518 790.453674,563.123718 786.875427,542.895874 
	C784.243225,528.016235 781.302063,513.087585 776.983093,498.633575 
	C769.947205,475.087158 758.328186,453.713470 744.322693,433.421112 
	C730.761658,413.772736 714.820862,396.515778 696.182678,381.902832 
	C673.260864,363.931366 647.921204,350.194946 619.964478,341.412476 
	C596.029724,333.893494 571.655762,329.644714 546.546875,330.029144 
	C536.292358,330.186157 525.997375,330.180939 515.803284,331.132660 
	C505.002533,332.141022 494.137238,333.505554 483.595886,335.976349 
	C470.822662,338.970306 458.359375,343.286530 445.061584,347.418915 
z"/>
<path fill="#FFFFFF" opacity="1.000000" stroke="none" 
	d="
M445.411774,347.224762 
	C458.359375,343.286530 470.822662,338.970306 483.595886,335.976349 
	C494.137238,333.505554 505.002533,332.141022 515.803284,331.132660 
	C525.997375,330.180939 536.292358,330.186157 546.546875,330.029144 
	C571.655762,329.644714 596.029724,333.893494 619.964478,341.412476 
	C647.921204,350.194946 673.260864,363.931366 696.182678,381.902832 
	C714.820862,396.515778 730.761658,413.772736 744.322693,433.421112 
	C758.328186,453.713470 769.947205,475.087158 776.983093,498.633575 
	C781.302063,513.087585 784.243225,528.016235 786.875427,542.895874 
	C790.453674,563.123718 790.037842,583.655518 790.019104,604.130188 
	C789.965149,663.129028 790.225647,722.129211 789.884399,781.126160 
	C789.755310,803.441467 778.759583,820.709534 755.639526,826.511475 
	C730.712402,832.767029 706.121582,821.209717 698.289551,794.519348 
	C697.340515,791.285095 697.100281,787.757385 697.055786,784.358826 
	C696.908142,773.080261 697.000000,761.798584 697.000000,749.720642 
	C692.113098,755.246521 688.244263,760.792725 683.259705,765.025024 
	C671.109802,775.341492 658.911011,785.717224 645.877319,794.849365 
	C624.875061,809.564758 601.156433,818.696899 576.351440,824.719482 
	C566.930237,827.006958 557.118530,827.745178 547.455872,828.959595 
	C540.480164,829.836365 533.454163,830.887268 526.455200,830.854858 
	C518.282532,830.817078 510.101257,829.819824 501.948853,828.991394 
	C493.691162,828.152405 485.413483,827.313049 477.234497,825.938721 
	C460.843445,823.184387 445.275116,817.744202 430.073975,811.057678 
	C411.489746,802.883118 394.472778,792.148438 378.931519,779.264160 
	C358.384644,762.230225 341.602966,741.841309 328.279877,718.686707 
	C318.010864,700.839905 309.151917,682.309265 303.874146,662.345337 
	C300.708740,650.371887 298.018127,638.208618 296.162689,625.971680 
	C294.398926,614.339233 293.636139,602.516357 293.105682,590.746887 
	C292.610748,579.764709 292.256897,568.682129 293.147491,557.750244 
	C295.319275,531.091858 301.093842,505.186615 311.226349,480.310272 
	C319.223602,460.676178 330.118164,442.709625 342.265503,425.468567 
	C345.832733,420.405426 350.179688,415.877533 354.303589,411.223358 
	C367.269928,396.589813 381.651184,383.343567 398.038513,372.820007 
	C411.498535,364.176178 426.211304,357.483032 440.368744,349.925201 
	C441.933136,349.090027 443.497314,348.254333 445.411774,347.224762 
M381.729675,579.804932 
	C382.152985,587.386658 382.003693,595.054993 383.133423,602.529968 
	C384.841644,613.832520 386.530426,625.278687 389.857910,636.165527 
	C396.119507,656.652283 406.162811,675.273254 420.138336,691.769226 
	C433.064056,707.026001 447.806549,720.027161 465.303375,729.639221 
	C490.416595,743.435486 517.516724,749.802612 546.107483,748.840820 
	C555.959717,748.509338 565.813293,746.688416 575.556396,744.936890 
	C602.990479,740.004883 626.478149,726.971680 646.925232,708.457581 
	C664.004639,692.992737 676.848755,674.375732 686.038025,653.174988 
	C693.952820,634.914612 698.475464,615.806824 699.795959,596.105164 
	C700.578308,584.432922 699.417664,572.621765 698.980103,560.878723 
	C698.464233,547.035156 695.343750,533.645996 690.864868,520.632324 
	C681.493896,493.404724 666.975464,469.509094 644.986572,450.405640 
	C628.942322,436.466858 611.145630,425.846039 590.859680,419.380188 
	C575.559143,414.503418 559.938599,411.654633 543.873962,412.076538 
	C534.533508,412.321838 525.207947,413.266663 515.885010,414.013794 
	C501.904968,415.134186 488.783875,419.659576 476.249329,425.472656 
	C455.869171,434.924133 437.974060,447.768097 423.186462,465.077789 
	C410.317047,480.142090 400.196686,496.747803 393.189636,515.045898 
	C385.360657,535.490479 381.131927,556.829590 381.729675,579.804932 
z"/>
<path fill="#000000" opacity="1.000000" stroke="none" 
	d="
M381.855530,579.365784 
	C381.131927,556.829590 385.360657,535.490479 393.189636,515.045898 
	C400.196686,496.747803 410.317047,480.142090 423.186462,465.077789 
	C437.974060,447.768097 455.869171,434.924133 476.249329,425.472656 
	C488.783875,419.659576 501.904968,415.134186 515.885010,414.013794 
	C525.207947,413.266663 534.533508,412.321838 543.873962,412.076538 
	C559.938599,411.654633 575.559143,414.503418 590.859680,419.380188 
	C611.145630,425.846039 628.942322,436.466858 644.986572,450.405640 
	C666.975464,469.509094 681.493896,493.404724 690.864868,520.632324 
	C695.343750,533.645996 698.464233,547.035156 698.980103,560.878723 
	C699.417664,572.621765 700.578308,584.432922 699.795959,596.105164 
	C698.475464,615.806824 693.952820,634.914612 686.038025,653.174988 
	C676.848755,674.375732 664.004639,692.992737 646.925232,708.457581 
	C626.478149,726.971680 602.990479,740.004883 575.556396,744.936890 
	C565.813293,746.688416 555.959717,748.509338 546.107483,748.840820 
	C517.516724,749.802612 490.416595,743.435486 465.303375,729.639221 
	C447.806549,720.027161 433.064056,707.026001 420.138336,691.769226 
	C406.162811,675.273254 396.119507,656.652283 389.857910,636.165527 
	C386.530426,625.278687 384.841644,613.832520 383.133423,602.529968 
	C382.003693,595.054993 382.152985,587.386658 381.855530,579.365784 
z"/>
</svg>